<svg width="64" height="64" viewBox="0 0 64 64" fill="none" xmlns="http://www.w3.org/2000/svg">
<path d="M18.7504 15.875H25H31.2496C31.8454 15.875 32.4023 15.5894 32.7594 15.1125C35.4904 11.4664 36.875 7.43325 36.875 3.125V1.875C36.875 0.8395 36.0355 0 35 0C31.5275 0 26.9981 2.249 25 3.34325C23.0019 2.249 18.4725 0 15 0C13.9645 0 13.125 0.8395 13.125 1.875V3.125C13.125 7.43325 14.5096 11.4664 17.2406 15.1125C17.5978 15.5894 18.1548 15.875 18.7504 15.875Z" fill="#22C55E"/>
<path d="M26.4514 43.4338V48.7425C27.4093 48.2255 27.9783 47.271 28.1304 46.3661C28.2392 45.7197 28.2835 44.1682 26.4514 43.4338Z" fill="#22C55E"/>
<path d="M22.3841 36.6656C22.2526 37.3631 22.4217 38.013 22.8147 38.3212C22.9684 38.4419 23.1413 38.5599 23.3264 38.6756V35.1465C22.7806 35.5282 22.4833 36.1392 22.3841 36.6656Z" fill="#22C55E"/>
<path d="M35.25 47.2916V37.989C35.25 35.3906 37.119 33.2026 39.6941 32.7864C41.0257 32.5711 42.1842 31.7404 42.8215 30.5553C40.1355 26.8404 36.9732 23.3809 33.8381 20.1868C33.4856 19.8274 33.0033 19.625 32.5 19.625H17.5C16.9966 19.625 16.5145 19.8274 16.1619 20.1866C8.16987 28.3291 0 38.1943 0 49.625L0.000125 49.7595C0.017625 57.6117 6.5115 64 14.4764 64H35.5236C37.7505 64 39.8622 63.5002 41.7497 62.6091C37.686 58.6844 35.25 53.2038 35.25 47.2916ZM31.2122 46.8841C30.9737 48.3026 30.2601 49.6189 29.2027 50.5904C28.412 51.3169 27.4783 51.8141 26.4515 52.0655V53.25C26.4515 54.113 25.752 54.8125 24.889 54.8125C24.026 54.8125 23.3265 54.113 23.3265 53.25V52.2115C22.0175 52.1034 20.9404 51.758 19.4083 50.7557C18.6861 50.2834 18.4836 49.315 18.956 48.5929C19.4284 47.8706 20.3966 47.6681 21.1189 48.1406C22.0049 48.7201 22.5704 48.9675 23.3265 49.0679V42.2038C22.2899 41.7305 21.5183 41.276 20.8861 40.7801C19.5656 39.7444 18.9628 37.946 19.3131 36.0869C19.6953 34.0594 21.106 32.4464 22.995 31.8774C23.1066 31.8438 23.2171 31.813 23.3265 31.7845V30.75C23.3265 29.887 24.026 29.1875 24.889 29.1875C25.752 29.1875 26.4515 29.887 26.4515 30.75V31.6114C28.019 31.8734 29.1259 32.6421 29.6597 33.2546C30.2266 33.9052 30.1589 34.8923 29.5082 35.4591C28.8608 36.0233 27.88 35.9587 27.3119 35.3169C27.2747 35.279 26.994 35.0069 26.4515 34.8199V40.1075C26.7467 40.2174 27.0417 40.3237 27.3314 40.4261C30.1793 41.4326 31.7026 43.9676 31.2122 46.8841Z" fill="#22C55E"/>
<path d="M62.7075 36.4883C60.1616 36.0767 57.9325 34.4649 56.759 32.1099C56.5995 31.7898 56.2676 31.592 55.9099 31.592H47.0901C46.7324 31.592 46.4005 31.7898 46.241 32.1099C45.0675 34.465 42.8384 36.0767 40.2925 36.4883C39.5509 36.6082 39 37.2377 39 37.9889V47.2915C39 54.8289 43.811 61.4978 50.906 63.9022C51.2907 64.0325 51.7094 64.0325 52.0941 63.9022C59.189 61.4979 64 54.8289 64 47.2915V37.9889C64 37.2377 63.4491 36.6082 62.7075 36.4883ZM58.1291 45.6322L51.0581 52.7032C50.692 53.0693 50.2121 53.2524 49.7324 53.2524C49.2526 53.2524 48.7726 53.0694 48.4066 52.7032L44.8711 49.1677C44.1389 48.4354 44.1389 47.2483 44.8711 46.516C45.6032 45.7838 46.7905 45.7838 47.5228 46.516L49.7325 48.7257L55.4777 42.9805C56.2099 42.2483 57.3971 42.2483 58.1294 42.9805C58.8614 43.7129 58.8614 44.9 58.1291 45.6322Z" fill="#22C55E"/>
</svg>
