<svg width="52" height="65" viewBox="0 0 52 65" fill="none" xmlns="http://www.w3.org/2000/svg">
<path d="M26 9.35645C16.9927 9.35645 9.68994 16.6587 9.68994 25.666C9.68994 34.6738 16.9927 41.9751 26 41.9751C35.0078 41.9751 42.3091 34.6738 42.3091 25.666C42.3091 16.6587 35.0078 9.35645 26 9.35645ZM28.9121 33.3916H27.875V35.3584H24.125V33.3921H20.1626V29.6421L28.9116 29.6416C29.4814 29.6416 29.9624 29.1606 29.9624 28.5913C29.9624 28.022 29.4814 27.5405 28.9121 27.5405H23.0879C20.4409 27.5405 18.2876 25.3872 18.2876 22.7402C18.2876 20.0933 20.4409 17.9399 23.0879 17.9399H24.1338V15.9629H27.8838V17.9399H31.8374V21.6899H23.0879C22.5186 21.6899 22.0376 22.1709 22.0376 22.7402C22.0376 23.3096 22.5186 23.7905 23.0879 23.7905H28.9121C31.5591 23.7905 33.7124 25.9443 33.7124 28.5913C33.7124 31.2378 31.5591 33.3916 28.9121 33.3916Z" fill="#22C55E"/>
<path d="M26 0.5C12.1011 0.5 0.833984 11.7671 0.833984 25.666C0.833984 35.7188 6.729 44.3936 15.2505 48.4253L15.2627 64.5L25.979 60.2847L36.7373 64.5V48.4312C45.2651 44.4019 51.166 35.7236 51.166 25.666C51.166 11.7671 39.8989 0.5 26 0.5ZM40.1841 39.8501C38.3428 41.6914 36.1987 43.1362 33.8091 44.1475C31.334 45.1948 28.7065 45.7251 26 45.7251C23.2939 45.7251 20.6665 45.1948 18.1914 44.1475C15.8013 43.1362 13.6562 41.6914 11.8164 39.8501C9.9751 38.0088 8.52881 35.8638 7.51904 33.4751C6.47119 31 5.93994 28.3726 5.93994 25.666C5.93994 22.96 6.47119 20.3325 7.51904 17.8564C8.52881 15.4673 9.9751 13.3223 11.8164 11.4814C13.6562 9.64111 15.8013 8.19482 18.1914 7.18506C20.6665 6.1377 23.2939 5.60645 26 5.60645C28.7065 5.60645 31.334 6.1377 33.8091 7.18506C36.1987 8.19482 38.3428 9.64111 40.1841 11.4814C42.0249 13.3223 43.4712 15.4673 44.4814 17.8564C45.5288 20.3325 46.0591 22.96 46.0591 25.666C46.0591 28.3726 45.5288 31 44.4814 33.4751C43.4712 35.8638 42.0249 38.0088 40.1841 39.8501Z" fill="#22C55E"/>
</svg>
