<svg width="56" height="64" viewBox="0 0 56 64" fill="none" xmlns="http://www.w3.org/2000/svg">
<path d="M36.3682 34.9214V25.4911H45.5093L25.4869 0L3.47095 25.4911H12.4259L26.4983 45.3345C28.0857 40.5781 31.7284 36.7536 36.3682 34.9214Z" fill="#22C55E"/>
<path d="M25.6459 51.3481H22.1798V64H32.1104C28.3301 61.0235 25.8443 56.4741 25.6459 51.3481Z" fill="#22C55E"/>
<path d="M0.113403 47.7232H5.30653V64.0001H12.4259H18.5548V47.7232H23.777L12.4352 31.6157L0.113403 47.7232Z" fill="#22C55E"/>
<path d="M42.5717 37.3701C35.2298 37.3701 29.2567 43.3432 29.2567 50.6851C29.2567 58.027 35.2298 64.0001 42.5717 64.0001C49.9136 64.0001 55.8867 58.027 55.8867 50.6851C55.8867 43.3432 49.9136 37.3701 42.5717 37.3701ZM41.0337 56.7797L36.0685 51.8145L38.7078 49.1752L41.0337 51.5011L46.4357 46.0992L49.075 48.7386L41.0337 56.7797Z" fill="#22C55E"/>
</svg>
