<svg width="103" height="42" viewBox="0 0 103 42" fill="none" xmlns="http://www.w3.org/2000/svg">
<path d="M11.5625 24.25V28M16.1875 20.5V28M20.8125 16.75V28M25.4375 13V28M9.25 34.25H27.75C28.67 34.25 29.5523 33.8549 30.2028 33.1517C30.8533 32.4484 31.2187 31.4946 31.2187 30.5V10.5C31.2187 9.50544 30.8533 8.55161 30.2028 7.84835C29.5523 7.14509 28.67 6.75 27.75 6.75H9.25C8.33003 6.75 7.44774 7.14509 6.79722 7.84835C6.14671 8.55161 5.78125 9.50544 5.78125 10.5V30.5C5.78125 31.4946 6.14671 32.4484 6.79722 33.1517C7.44774 33.8549 8.33003 34.25 9.25 34.25Z" stroke="#22C55E" stroke-width="1.5" stroke-linecap="round" stroke-linejoin="round"/>
<path d="M47.76 19.68C47.2667 19.68 46.8667 19.5667 46.56 19.34C46.2533 19.1 46.0133 18.7333 45.84 18.24L41.94 7.38C41.7267 6.78 41.76 6.27333 42.04 5.86C42.3333 5.43333 42.8467 5.22 43.58 5.22C44.0733 5.22 44.46 5.34 44.74 5.58C45.02 5.80667 45.24 6.16667 45.4 6.66L48.38 15.6H47.44L50.64 6.66C50.8267 6.16667 51.06 5.80667 51.34 5.58C51.62 5.34 51.98 5.22 52.42 5.22C52.86 5.22 53.2133 5.34 53.48 5.58C53.7467 5.80667 53.9667 6.17333 54.14 6.68L57.14 15.6H56.34L59.4 6.66C59.56 6.16667 59.7733 5.80667 60.04 5.58C60.32 5.34 60.7067 5.22 61.2 5.22C61.8133 5.22 62.26 5.43333 62.54 5.86C62.8333 6.27333 62.8667 6.78 62.64 7.38L58.7 18.26C58.5267 18.74 58.2867 19.1 57.98 19.34C57.6867 19.5667 57.2933 19.68 56.8 19.68C56.2933 19.68 55.8867 19.5667 55.58 19.34C55.2867 19.1 55.0533 18.7333 54.88 18.24L52.06 10.32H52.56L49.68 18.26C49.4933 18.74 49.2533 19.1 48.96 19.34C48.6667 19.5667 48.2667 19.68 47.76 19.68ZM66.6786 19.68C66.0919 19.68 65.6386 19.52 65.3186 19.2C64.9986 18.8667 64.8386 18.4 64.8386 17.8V7.1C64.8386 6.48667 64.9986 6.02 65.3186 5.7C65.6386 5.38 66.0919 5.22 66.6786 5.22C67.2786 5.22 67.7319 5.38 68.0386 5.7C68.3586 6.02 68.5186 6.48667 68.5186 7.1V17.8C68.5186 18.4 68.3653 18.8667 68.0586 19.2C67.7519 19.52 67.2919 19.68 66.6786 19.68ZM72.7891 19.68C72.2291 19.68 71.8024 19.5333 71.5091 19.24C71.2157 18.9467 71.0691 18.5133 71.0691 17.94V7.04C71.0691 6.45333 71.2157 6.00667 71.5091 5.7C71.8024 5.38 72.1891 5.22 72.6691 5.22C73.0957 5.22 73.4291 5.3 73.6691 5.46C73.9091 5.62 74.1757 5.88667 74.4691 6.26L80.8091 14.18H80.2491V6.94C80.2491 6.38 80.3891 5.95333 80.6691 5.66C80.9624 5.36667 81.3891 5.22 81.9491 5.22C82.5091 5.22 82.9291 5.36667 83.2091 5.66C83.5024 5.95333 83.6491 6.38 83.6491 6.94V18.02C83.6491 18.5267 83.5157 18.9333 83.2491 19.24C82.9824 19.5333 82.6224 19.68 82.1691 19.68C81.7157 19.68 81.3557 19.6 81.0891 19.44C80.8357 19.2667 80.5624 19 80.2691 18.64L73.9291 10.7H74.4891V17.94C74.4891 18.5133 74.3424 18.9467 74.0491 19.24C73.7691 19.5333 73.3491 19.68 72.7891 19.68ZM88.1453 19.5C87.5186 19.5 87.0386 19.34 86.7053 19.02C86.3853 18.6867 86.2253 18.2133 86.2253 17.6V7.3C86.2253 6.68667 86.3853 6.22 86.7053 5.9C87.0386 5.56667 87.5186 5.4 88.1453 5.4H92.0653C94.5186 5.4 96.412 6.01333 97.7453 7.24C99.092 8.46667 99.7653 10.2 99.7653 12.44C99.7653 13.56 99.592 14.56 99.2453 15.44C98.8986 16.3067 98.3986 17.0467 97.7453 17.66C97.092 18.26 96.2853 18.72 95.3253 19.04C94.3786 19.3467 93.292 19.5 92.0653 19.5H88.1453ZM89.9053 16.52H91.8253C92.532 16.52 93.1386 16.4333 93.6453 16.26C94.1653 16.0867 94.592 15.8333 94.9253 15.5C95.272 15.1667 95.5253 14.7467 95.6853 14.24C95.8586 13.7333 95.9453 13.1333 95.9453 12.44C95.9453 11.0533 95.6053 10.0333 94.9253 9.38C94.2453 8.71333 93.212 8.38 91.8253 8.38H89.9053V16.52Z" fill="white"/>
<path d="M43.32 36.6C43.0533 36.6 42.8533 36.5267 42.72 36.38C42.5867 36.22 42.52 36 42.52 35.72V27.54C42.52 27.26 42.5867 27.0467 42.72 26.9C42.8533 26.7533 43.0533 26.68 43.32 26.68C43.5733 26.68 43.7733 26.7533 43.92 26.9C44.0667 27.0467 44.14 27.26 44.14 27.54V35.72C44.14 36 44.0667 36.22 43.92 36.38C43.7867 36.5267 43.5867 36.6 43.32 36.6ZM43.32 24.44C42.9867 24.44 42.7267 24.3533 42.54 24.18C42.3533 23.9933 42.26 23.7467 42.26 23.44C42.26 23.12 42.3533 22.88 42.54 22.72C42.7267 22.5467 42.9867 22.46 43.32 22.46C43.6667 22.46 43.9267 22.5467 44.1 22.72C44.2867 22.88 44.38 23.12 44.38 23.44C44.38 23.7467 44.2867 23.9933 44.1 24.18C43.9267 24.3533 43.6667 24.44 43.32 24.44ZM47.9684 36.64C47.7018 36.64 47.5018 36.5667 47.3684 36.42C47.2351 36.2733 47.1684 36.0667 47.1684 35.8V27.46C47.1684 27.1933 47.2351 26.9933 47.3684 26.86C47.5018 26.7133 47.6951 26.64 47.9484 26.64C48.2018 26.64 48.3951 26.7133 48.5284 26.86C48.6751 26.9933 48.7484 27.1933 48.7484 27.46V29.18L48.5284 28.94C48.8084 28.1667 49.2618 27.5867 49.8884 27.2C50.5284 26.8 51.2618 26.6 52.0884 26.6C52.8618 26.6 53.5018 26.74 54.0084 27.02C54.5284 27.3 54.9151 27.7267 55.1684 28.3C55.4218 28.86 55.5484 29.5733 55.5484 30.44V35.8C55.5484 36.0667 55.4751 36.2733 55.3284 36.42C55.1951 36.5667 55.0018 36.64 54.7484 36.64C54.4818 36.64 54.2751 36.5667 54.1284 36.42C53.9951 36.2733 53.9284 36.0667 53.9284 35.8V30.54C53.9284 29.6333 53.7484 28.9733 53.3884 28.56C53.0418 28.1333 52.4818 27.92 51.7084 27.92C50.8151 27.92 50.1018 28.2 49.5684 28.76C49.0484 29.3067 48.7884 30.04 48.7884 30.96V35.8C48.7884 36.36 48.5151 36.64 47.9684 36.64ZM62.058 36.64C61.8313 36.64 61.6313 36.58 61.458 36.46C61.2846 36.3267 61.138 36.1267 61.018 35.86L57.558 27.78C57.4646 27.58 57.4313 27.3933 57.458 27.22C57.4846 27.0467 57.5646 26.9067 57.698 26.8C57.8313 26.6933 58.018 26.64 58.258 26.64C58.4713 26.64 58.638 26.6867 58.758 26.78C58.878 26.8733 58.9846 27.04 59.078 27.28L62.358 35.3H61.818L65.158 27.28C65.2513 27.04 65.358 26.8733 65.478 26.78C65.598 26.6867 65.7713 26.64 65.998 26.64C66.2113 26.64 66.3713 26.6933 66.478 26.8C66.598 26.9067 66.6646 27.0467 66.678 27.22C66.7046 27.38 66.678 27.56 66.598 27.76L63.098 35.86C63.0046 36.1267 62.8646 36.3267 62.678 36.46C62.5046 36.58 62.298 36.64 62.058 36.64ZM72.9742 36.68C71.9476 36.68 71.0609 36.48 70.3142 36.08C69.5809 35.6667 69.0076 35.0867 68.5942 34.34C68.1942 33.5933 67.9942 32.7 67.9942 31.66C67.9942 30.6467 68.1942 29.7667 68.5942 29.02C68.9942 28.26 69.5409 27.6667 70.2342 27.24C70.9409 26.8133 71.7542 26.6 72.6742 26.6C73.3276 26.6 73.9142 26.7133 74.4342 26.94C74.9542 27.1533 75.3942 27.4667 75.7542 27.88C76.1276 28.2933 76.4076 28.7933 76.5942 29.38C76.7942 29.9667 76.8942 30.6267 76.8942 31.36C76.8942 31.5733 76.8342 31.7333 76.7142 31.84C76.5942 31.9333 76.4209 31.98 76.1942 31.98H69.2342V30.92H75.8142L75.4942 31.18C75.4942 30.46 75.3876 29.8533 75.1742 29.36C74.9609 28.8533 74.6476 28.4667 74.2342 28.2C73.8342 27.9333 73.3276 27.8 72.7142 27.8C72.0342 27.8 71.4542 27.96 70.9742 28.28C70.5076 28.5867 70.1542 29.02 69.9142 29.58C69.6742 30.1267 69.5542 30.7667 69.5542 31.5V31.62C69.5542 32.8467 69.8476 33.78 70.4342 34.42C71.0342 35.06 71.8809 35.38 72.9742 35.38C73.4276 35.38 73.8742 35.32 74.3142 35.2C74.7676 35.08 75.2076 34.88 75.6342 34.6C75.8209 34.48 75.9876 34.4267 76.1342 34.44C76.2942 34.44 76.4209 34.4867 76.5142 34.58C76.6076 34.66 76.6676 34.7667 76.6942 34.9C76.7342 35.02 76.7209 35.1533 76.6542 35.3C76.6009 35.4467 76.4876 35.5733 76.3142 35.68C75.8742 36 75.3542 36.2467 74.7542 36.42C74.1542 36.5933 73.5609 36.68 72.9742 36.68ZM82.5188 36.68C81.9188 36.68 81.3121 36.6067 80.6988 36.46C80.0988 36.3133 79.5388 36.06 79.0188 35.7C78.8854 35.6067 78.7921 35.5 78.7388 35.38C78.6854 35.2467 78.6654 35.12 78.6788 35C78.7054 34.8667 78.7588 34.7533 78.8388 34.66C78.9321 34.5667 79.0388 34.5133 79.1588 34.5C79.2921 34.4733 79.4388 34.5 79.5988 34.58C80.1188 34.9 80.6188 35.1267 81.0988 35.26C81.5921 35.38 82.0788 35.44 82.5588 35.44C83.3188 35.44 83.8921 35.3 84.2788 35.02C84.6654 34.74 84.8588 34.36 84.8588 33.88C84.8588 33.5067 84.7321 33.2133 84.4788 33C84.2254 32.7733 83.8254 32.6 83.2788 32.48L81.4588 32.08C80.6188 31.9067 79.9921 31.6067 79.5788 31.18C79.1788 30.7533 78.9788 30.2 78.9788 29.52C78.9788 28.92 79.1321 28.4067 79.4388 27.98C79.7588 27.54 80.2054 27.2 80.7788 26.96C81.3521 26.72 82.0188 26.6 82.7788 26.6C83.3654 26.6 83.9188 26.68 84.4388 26.84C84.9721 26.9867 85.4521 27.2267 85.8788 27.56C86.0121 27.6533 86.0988 27.7667 86.1388 27.9C86.1921 28.02 86.1988 28.1467 86.1588 28.28C86.1321 28.4 86.0721 28.5067 85.9788 28.6C85.8854 28.68 85.7721 28.7267 85.6388 28.74C85.5054 28.7533 85.3654 28.7133 85.2188 28.62C84.8188 28.3533 84.4121 28.16 83.9988 28.04C83.5854 27.9067 83.1788 27.84 82.7788 27.84C82.0321 27.84 81.4654 27.9867 81.0788 28.28C80.6921 28.5733 80.4988 28.96 80.4988 29.44C80.4988 29.8133 80.6188 30.12 80.8588 30.36C81.0988 30.6 81.4721 30.7733 81.9788 30.88L83.7988 31.26C84.6654 31.4467 85.3121 31.7467 85.7388 32.16C86.1788 32.56 86.3988 33.1067 86.3988 33.8C86.3988 34.68 86.0454 35.38 85.3388 35.9C84.6321 36.42 83.6921 36.68 82.5188 36.68ZM92.67 36.68C91.91 36.68 91.27 36.5467 90.75 36.28C90.2433 36 89.8633 35.6 89.61 35.08C89.3567 34.5467 89.23 33.9 89.23 33.14V28.04H87.89C87.6633 28.04 87.49 27.9867 87.37 27.88C87.25 27.76 87.19 27.6 87.19 27.4C87.19 27.2 87.25 27.0467 87.37 26.94C87.49 26.8333 87.6633 26.78 87.89 26.78H89.23V24.48C89.23 24.2133 89.3033 24.0133 89.45 23.88C89.5967 23.7333 89.7967 23.66 90.05 23.66C90.3033 23.66 90.4967 23.7333 90.63 23.88C90.7767 24.0133 90.85 24.2133 90.85 24.48V26.78H93.37C93.5967 26.78 93.77 26.8333 93.89 26.94C94.01 27.0467 94.07 27.2 94.07 27.4C94.07 27.6 94.01 27.76 93.89 27.88C93.77 27.9867 93.5967 28.04 93.37 28.04H90.85V32.98C90.85 33.74 91.01 34.32 91.33 34.72C91.65 35.1067 92.17 35.3 92.89 35.3C93.1433 35.3 93.3567 35.2733 93.53 35.22C93.7167 35.1667 93.87 35.14 93.99 35.14C94.11 35.1267 94.21 35.1667 94.29 35.26C94.37 35.3533 94.41 35.5133 94.41 35.74C94.41 35.9 94.3767 36.0467 94.31 36.18C94.2567 36.3133 94.1567 36.4067 94.01 36.46C93.85 36.5133 93.6367 36.56 93.37 36.6C93.1167 36.6533 92.8833 36.68 92.67 36.68Z" fill="white"/>
</svg>
